<?xml version="1.0" standalone="no"?>
<svg xmlns="http://www.w3.org/2000/svg" version="1.1" width="232" height="232">
	<!-- Created with https://api.qrserver.com (QR Code API, see goQR.me/api for information) -->
	<title>QR Code</title>
	<desc>https://github.com/bdestombe/python-flopy-parser</desc>
	<rect style="fill:rgb(255, 255, 255);fill-opacity:1" x="0" y="0" width="232" height="232" />
	<g id="elements">
		<path style="fill:rgb(0, 0, 0)" d="M 0,0 l 8,0 0,8 -8,0 z M 8,0 l 8,0 0,8 -8,0 z M 16,0 l 8,0 0,8 -8,0 z M 24,0 l 8,0 0,8 -8,0 z M 32,0 l 8,0 0,8 -8,0 z M 40,0 l 8,0 0,8 -8,0 z M 48,0 l 8,0 0,8 -8,0 z M 80,0 l 8,0 0,8 -8,0 z M 96,0 l 8,0 0,8 -8,0 z M 128,0 l 8,0 0,8 -8,0 z M 152,0 l 8,0 0,8 -8,0 z M 160,0 l 8,0 0,8 -8,0 z M 176,0 l 8,0 0,8 -8,0 z M 184,0 l 8,0 0,8 -8,0 z M 192,0 l 8,0 0,8 -8,0 z M 200,0 l 8,0 0,8 -8,0 z M 208,0 l 8,0 0,8 -8,0 z M 216,0 l 8,0 0,8 -8,0 z M 224,0 l 8,0 0,8 -8,0 z M 0,8 l 8,0 0,8 -8,0 z M 48,8 l 8,0 0,8 -8,0 z M 64,8 l 8,0 0,8 -8,0 z M 80,8 l 8,0 0,8 -8,0 z M 104,8 l 8,0 0,8 -8,0 z M 112,8 l 8,0 0,8 -8,0 z M 120,8 l 8,0 0,8 -8,0 z M 128,8 l 8,0 0,8 -8,0 z M 136,8 l 8,0 0,8 -8,0 z M 144,8 l 8,0 0,8 -8,0 z M 160,8 l 8,0 0,8 -8,0 z M 176,8 l 8,0 0,8 -8,0 z M 224,8 l 8,0 0,8 -8,0 z M 0,16 l 8,0 0,8 -8,0 z M 16,16 l 8,0 0,8 -8,0 z M 24,16 l 8,0 0,8 -8,0 z M 32,16 l 8,0 0,8 -8,0 z M 48,16 l 8,0 0,8 -8,0 z M 96,16 l 8,0 0,8 -8,0 z M 120,16 l 8,0 0,8 -8,0 z M 128,16 l 8,0 0,8 -8,0 z M 160,16 l 8,0 0,8 -8,0 z M 176,16 l 8,0 0,8 -8,0 z M 192,16 l 8,0 0,8 -8,0 z M 200,16 l 8,0 0,8 -8,0 z M 208,16 l 8,0 0,8 -8,0 z M 224,16 l 8,0 0,8 -8,0 z M 0,24 l 8,0 0,8 -8,0 z M 16,24 l 8,0 0,8 -8,0 z M 24,24 l 8,0 0,8 -8,0 z M 32,24 l 8,0 0,8 -8,0 z M 48,24 l 8,0 0,8 -8,0 z M 64,24 l 8,0 0,8 -8,0 z M 72,24 l 8,0 0,8 -8,0 z M 80,24 l 8,0 0,8 -8,0 z M 96,24 l 8,0 0,8 -8,0 z M 104,24 l 8,0 0,8 -8,0 z M 112,24 l 8,0 0,8 -8,0 z M 136,24 l 8,0 0,8 -8,0 z M 176,24 l 8,0 0,8 -8,0 z M 192,24 l 8,0 0,8 -8,0 z M 200,24 l 8,0 0,8 -8,0 z M 208,24 l 8,0 0,8 -8,0 z M 224,24 l 8,0 0,8 -8,0 z M 0,32 l 8,0 0,8 -8,0 z M 16,32 l 8,0 0,8 -8,0 z M 24,32 l 8,0 0,8 -8,0 z M 32,32 l 8,0 0,8 -8,0 z M 48,32 l 8,0 0,8 -8,0 z M 72,32 l 8,0 0,8 -8,0 z M 104,32 l 8,0 0,8 -8,0 z M 152,32 l 8,0 0,8 -8,0 z M 160,32 l 8,0 0,8 -8,0 z M 176,32 l 8,0 0,8 -8,0 z M 192,32 l 8,0 0,8 -8,0 z M 200,32 l 8,0 0,8 -8,0 z M 208,32 l 8,0 0,8 -8,0 z M 224,32 l 8,0 0,8 -8,0 z M 0,40 l 8,0 0,8 -8,0 z M 48,40 l 8,0 0,8 -8,0 z M 64,40 l 8,0 0,8 -8,0 z M 72,40 l 8,0 0,8 -8,0 z M 88,40 l 8,0 0,8 -8,0 z M 96,40 l 8,0 0,8 -8,0 z M 112,40 l 8,0 0,8 -8,0 z M 120,40 l 8,0 0,8 -8,0 z M 176,40 l 8,0 0,8 -8,0 z M 224,40 l 8,0 0,8 -8,0 z M 0,48 l 8,0 0,8 -8,0 z M 8,48 l 8,0 0,8 -8,0 z M 16,48 l 8,0 0,8 -8,0 z M 24,48 l 8,0 0,8 -8,0 z M 32,48 l 8,0 0,8 -8,0 z M 40,48 l 8,0 0,8 -8,0 z M 48,48 l 8,0 0,8 -8,0 z M 64,48 l 8,0 0,8 -8,0 z M 80,48 l 8,0 0,8 -8,0 z M 96,48 l 8,0 0,8 -8,0 z M 112,48 l 8,0 0,8 -8,0 z M 128,48 l 8,0 0,8 -8,0 z M 144,48 l 8,0 0,8 -8,0 z M 160,48 l 8,0 0,8 -8,0 z M 176,48 l 8,0 0,8 -8,0 z M 184,48 l 8,0 0,8 -8,0 z M 192,48 l 8,0 0,8 -8,0 z M 200,48 l 8,0 0,8 -8,0 z M 208,48 l 8,0 0,8 -8,0 z M 216,48 l 8,0 0,8 -8,0 z M 224,48 l 8,0 0,8 -8,0 z M 72,56 l 8,0 0,8 -8,0 z M 80,56 l 8,0 0,8 -8,0 z M 88,56 l 8,0 0,8 -8,0 z M 128,56 l 8,0 0,8 -8,0 z M 144,56 l 8,0 0,8 -8,0 z M 160,56 l 8,0 0,8 -8,0 z M 0,64 l 8,0 0,8 -8,0 z M 8,64 l 8,0 0,8 -8,0 z M 16,64 l 8,0 0,8 -8,0 z M 24,64 l 8,0 0,8 -8,0 z M 32,64 l 8,0 0,8 -8,0 z M 48,64 l 8,0 0,8 -8,0 z M 56,64 l 8,0 0,8 -8,0 z M 64,64 l 8,0 0,8 -8,0 z M 72,64 l 8,0 0,8 -8,0 z M 88,64 l 8,0 0,8 -8,0 z M 96,64 l 8,0 0,8 -8,0 z M 104,64 l 8,0 0,8 -8,0 z M 112,64 l 8,0 0,8 -8,0 z M 136,64 l 8,0 0,8 -8,0 z M 168,64 l 8,0 0,8 -8,0 z M 184,64 l 8,0 0,8 -8,0 z M 200,64 l 8,0 0,8 -8,0 z M 216,64 l 8,0 0,8 -8,0 z M 16,72 l 8,0 0,8 -8,0 z M 40,72 l 8,0 0,8 -8,0 z M 56,72 l 8,0 0,8 -8,0 z M 80,72 l 8,0 0,8 -8,0 z M 96,72 l 8,0 0,8 -8,0 z M 104,72 l 8,0 0,8 -8,0 z M 128,72 l 8,0 0,8 -8,0 z M 136,72 l 8,0 0,8 -8,0 z M 144,72 l 8,0 0,8 -8,0 z M 152,72 l 8,0 0,8 -8,0 z M 160,72 l 8,0 0,8 -8,0 z M 176,72 l 8,0 0,8 -8,0 z M 184,72 l 8,0 0,8 -8,0 z M 192,72 l 8,0 0,8 -8,0 z M 224,72 l 8,0 0,8 -8,0 z M 8,80 l 8,0 0,8 -8,0 z M 24,80 l 8,0 0,8 -8,0 z M 48,80 l 8,0 0,8 -8,0 z M 56,80 l 8,0 0,8 -8,0 z M 80,80 l 8,0 0,8 -8,0 z M 96,80 l 8,0 0,8 -8,0 z M 104,80 l 8,0 0,8 -8,0 z M 112,80 l 8,0 0,8 -8,0 z M 120,80 l 8,0 0,8 -8,0 z M 128,80 l 8,0 0,8 -8,0 z M 136,80 l 8,0 0,8 -8,0 z M 192,80 l 8,0 0,8 -8,0 z M 16,88 l 8,0 0,8 -8,0 z M 40,88 l 8,0 0,8 -8,0 z M 56,88 l 8,0 0,8 -8,0 z M 64,88 l 8,0 0,8 -8,0 z M 88,88 l 8,0 0,8 -8,0 z M 96,88 l 8,0 0,8 -8,0 z M 112,88 l 8,0 0,8 -8,0 z M 128,88 l 8,0 0,8 -8,0 z M 152,88 l 8,0 0,8 -8,0 z M 200,88 l 8,0 0,8 -8,0 z M 216,88 l 8,0 0,8 -8,0 z M 0,96 l 8,0 0,8 -8,0 z M 8,96 l 8,0 0,8 -8,0 z M 48,96 l 8,0 0,8 -8,0 z M 56,96 l 8,0 0,8 -8,0 z M 72,96 l 8,0 0,8 -8,0 z M 80,96 l 8,0 0,8 -8,0 z M 104,96 l 8,0 0,8 -8,0 z M 112,96 l 8,0 0,8 -8,0 z M 136,96 l 8,0 0,8 -8,0 z M 200,96 l 8,0 0,8 -8,0 z M 208,96 l 8,0 0,8 -8,0 z M 0,104 l 8,0 0,8 -8,0 z M 24,104 l 8,0 0,8 -8,0 z M 40,104 l 8,0 0,8 -8,0 z M 56,104 l 8,0 0,8 -8,0 z M 64,104 l 8,0 0,8 -8,0 z M 88,104 l 8,0 0,8 -8,0 z M 112,104 l 8,0 0,8 -8,0 z M 128,104 l 8,0 0,8 -8,0 z M 136,104 l 8,0 0,8 -8,0 z M 144,104 l 8,0 0,8 -8,0 z M 152,104 l 8,0 0,8 -8,0 z M 160,104 l 8,0 0,8 -8,0 z M 168,104 l 8,0 0,8 -8,0 z M 176,104 l 8,0 0,8 -8,0 z M 184,104 l 8,0 0,8 -8,0 z M 192,104 l 8,0 0,8 -8,0 z M 224,104 l 8,0 0,8 -8,0 z M 32,112 l 8,0 0,8 -8,0 z M 48,112 l 8,0 0,8 -8,0 z M 64,112 l 8,0 0,8 -8,0 z M 72,112 l 8,0 0,8 -8,0 z M 120,112 l 8,0 0,8 -8,0 z M 160,112 l 8,0 0,8 -8,0 z M 168,112 l 8,0 0,8 -8,0 z M 192,112 l 8,0 0,8 -8,0 z M 200,112 l 8,0 0,8 -8,0 z M 208,112 l 8,0 0,8 -8,0 z M 8,120 l 8,0 0,8 -8,0 z M 16,120 l 8,0 0,8 -8,0 z M 32,120 l 8,0 0,8 -8,0 z M 40,120 l 8,0 0,8 -8,0 z M 56,120 l 8,0 0,8 -8,0 z M 64,120 l 8,0 0,8 -8,0 z M 72,120 l 8,0 0,8 -8,0 z M 120,120 l 8,0 0,8 -8,0 z M 152,120 l 8,0 0,8 -8,0 z M 160,120 l 8,0 0,8 -8,0 z M 168,120 l 8,0 0,8 -8,0 z M 176,120 l 8,0 0,8 -8,0 z M 184,120 l 8,0 0,8 -8,0 z M 192,120 l 8,0 0,8 -8,0 z M 216,120 l 8,0 0,8 -8,0 z M 0,128 l 8,0 0,8 -8,0 z M 8,128 l 8,0 0,8 -8,0 z M 16,128 l 8,0 0,8 -8,0 z M 32,128 l 8,0 0,8 -8,0 z M 40,128 l 8,0 0,8 -8,0 z M 48,128 l 8,0 0,8 -8,0 z M 56,128 l 8,0 0,8 -8,0 z M 64,128 l 8,0 0,8 -8,0 z M 96,128 l 8,0 0,8 -8,0 z M 104,128 l 8,0 0,8 -8,0 z M 112,128 l 8,0 0,8 -8,0 z M 136,128 l 8,0 0,8 -8,0 z M 152,128 l 8,0 0,8 -8,0 z M 168,128 l 8,0 0,8 -8,0 z M 184,128 l 8,0 0,8 -8,0 z M 200,128 l 8,0 0,8 -8,0 z M 208,128 l 8,0 0,8 -8,0 z M 0,136 l 8,0 0,8 -8,0 z M 8,136 l 8,0 0,8 -8,0 z M 24,136 l 8,0 0,8 -8,0 z M 56,136 l 8,0 0,8 -8,0 z M 64,136 l 8,0 0,8 -8,0 z M 88,136 l 8,0 0,8 -8,0 z M 104,136 l 8,0 0,8 -8,0 z M 112,136 l 8,0 0,8 -8,0 z M 128,136 l 8,0 0,8 -8,0 z M 144,136 l 8,0 0,8 -8,0 z M 152,136 l 8,0 0,8 -8,0 z M 168,136 l 8,0 0,8 -8,0 z M 176,136 l 8,0 0,8 -8,0 z M 184,136 l 8,0 0,8 -8,0 z M 192,136 l 8,0 0,8 -8,0 z M 208,136 l 8,0 0,8 -8,0 z M 224,136 l 8,0 0,8 -8,0 z M 0,144 l 8,0 0,8 -8,0 z M 16,144 l 8,0 0,8 -8,0 z M 24,144 l 8,0 0,8 -8,0 z M 40,144 l 8,0 0,8 -8,0 z M 48,144 l 8,0 0,8 -8,0 z M 56,144 l 8,0 0,8 -8,0 z M 80,144 l 8,0 0,8 -8,0 z M 120,144 l 8,0 0,8 -8,0 z M 136,144 l 8,0 0,8 -8,0 z M 144,144 l 8,0 0,8 -8,0 z M 160,144 l 8,0 0,8 -8,0 z M 176,144 l 8,0 0,8 -8,0 z M 184,144 l 8,0 0,8 -8,0 z M 192,144 l 8,0 0,8 -8,0 z M 208,144 l 8,0 0,8 -8,0 z M 0,152 l 8,0 0,8 -8,0 z M 16,152 l 8,0 0,8 -8,0 z M 32,152 l 8,0 0,8 -8,0 z M 40,152 l 8,0 0,8 -8,0 z M 56,152 l 8,0 0,8 -8,0 z M 80,152 l 8,0 0,8 -8,0 z M 88,152 l 8,0 0,8 -8,0 z M 96,152 l 8,0 0,8 -8,0 z M 112,152 l 8,0 0,8 -8,0 z M 120,152 l 8,0 0,8 -8,0 z M 128,152 l 8,0 0,8 -8,0 z M 144,152 l 8,0 0,8 -8,0 z M 160,152 l 8,0 0,8 -8,0 z M 168,152 l 8,0 0,8 -8,0 z M 176,152 l 8,0 0,8 -8,0 z M 216,152 l 8,0 0,8 -8,0 z M 0,160 l 8,0 0,8 -8,0 z M 40,160 l 8,0 0,8 -8,0 z M 48,160 l 8,0 0,8 -8,0 z M 80,160 l 8,0 0,8 -8,0 z M 104,160 l 8,0 0,8 -8,0 z M 120,160 l 8,0 0,8 -8,0 z M 128,160 l 8,0 0,8 -8,0 z M 136,160 l 8,0 0,8 -8,0 z M 152,160 l 8,0 0,8 -8,0 z M 160,160 l 8,0 0,8 -8,0 z M 168,160 l 8,0 0,8 -8,0 z M 176,160 l 8,0 0,8 -8,0 z M 184,160 l 8,0 0,8 -8,0 z M 192,160 l 8,0 0,8 -8,0 z M 208,160 l 8,0 0,8 -8,0 z M 216,160 l 8,0 0,8 -8,0 z M 224,160 l 8,0 0,8 -8,0 z M 64,168 l 8,0 0,8 -8,0 z M 88,168 l 8,0 0,8 -8,0 z M 104,168 l 8,0 0,8 -8,0 z M 128,168 l 8,0 0,8 -8,0 z M 144,168 l 8,0 0,8 -8,0 z M 160,168 l 8,0 0,8 -8,0 z M 192,168 l 8,0 0,8 -8,0 z M 200,168 l 8,0 0,8 -8,0 z M 208,168 l 8,0 0,8 -8,0 z M 216,168 l 8,0 0,8 -8,0 z M 224,168 l 8,0 0,8 -8,0 z M 0,176 l 8,0 0,8 -8,0 z M 8,176 l 8,0 0,8 -8,0 z M 16,176 l 8,0 0,8 -8,0 z M 24,176 l 8,0 0,8 -8,0 z M 32,176 l 8,0 0,8 -8,0 z M 40,176 l 8,0 0,8 -8,0 z M 48,176 l 8,0 0,8 -8,0 z M 64,176 l 8,0 0,8 -8,0 z M 80,176 l 8,0 0,8 -8,0 z M 96,176 l 8,0 0,8 -8,0 z M 112,176 l 8,0 0,8 -8,0 z M 120,176 l 8,0 0,8 -8,0 z M 128,176 l 8,0 0,8 -8,0 z M 152,176 l 8,0 0,8 -8,0 z M 160,176 l 8,0 0,8 -8,0 z M 176,176 l 8,0 0,8 -8,0 z M 192,176 l 8,0 0,8 -8,0 z M 200,176 l 8,0 0,8 -8,0 z M 208,176 l 8,0 0,8 -8,0 z M 0,184 l 8,0 0,8 -8,0 z M 48,184 l 8,0 0,8 -8,0 z M 80,184 l 8,0 0,8 -8,0 z M 88,184 l 8,0 0,8 -8,0 z M 96,184 l 8,0 0,8 -8,0 z M 112,184 l 8,0 0,8 -8,0 z M 120,184 l 8,0 0,8 -8,0 z M 152,184 l 8,0 0,8 -8,0 z M 160,184 l 8,0 0,8 -8,0 z M 192,184 l 8,0 0,8 -8,0 z M 216,184 l 8,0 0,8 -8,0 z M 0,192 l 8,0 0,8 -8,0 z M 16,192 l 8,0 0,8 -8,0 z M 24,192 l 8,0 0,8 -8,0 z M 32,192 l 8,0 0,8 -8,0 z M 48,192 l 8,0 0,8 -8,0 z M 64,192 l 8,0 0,8 -8,0 z M 80,192 l 8,0 0,8 -8,0 z M 104,192 l 8,0 0,8 -8,0 z M 112,192 l 8,0 0,8 -8,0 z M 128,192 l 8,0 0,8 -8,0 z M 136,192 l 8,0 0,8 -8,0 z M 144,192 l 8,0 0,8 -8,0 z M 160,192 l 8,0 0,8 -8,0 z M 168,192 l 8,0 0,8 -8,0 z M 176,192 l 8,0 0,8 -8,0 z M 184,192 l 8,0 0,8 -8,0 z M 192,192 l 8,0 0,8 -8,0 z M 208,192 l 8,0 0,8 -8,0 z M 216,192 l 8,0 0,8 -8,0 z M 0,200 l 8,0 0,8 -8,0 z M 16,200 l 8,0 0,8 -8,0 z M 24,200 l 8,0 0,8 -8,0 z M 32,200 l 8,0 0,8 -8,0 z M 48,200 l 8,0 0,8 -8,0 z M 64,200 l 8,0 0,8 -8,0 z M 72,200 l 8,0 0,8 -8,0 z M 88,200 l 8,0 0,8 -8,0 z M 112,200 l 8,0 0,8 -8,0 z M 128,200 l 8,0 0,8 -8,0 z M 136,200 l 8,0 0,8 -8,0 z M 144,200 l 8,0 0,8 -8,0 z M 152,200 l 8,0 0,8 -8,0 z M 160,200 l 8,0 0,8 -8,0 z M 200,200 l 8,0 0,8 -8,0 z M 208,200 l 8,0 0,8 -8,0 z M 224,200 l 8,0 0,8 -8,0 z M 0,208 l 8,0 0,8 -8,0 z M 16,208 l 8,0 0,8 -8,0 z M 24,208 l 8,0 0,8 -8,0 z M 32,208 l 8,0 0,8 -8,0 z M 48,208 l 8,0 0,8 -8,0 z M 64,208 l 8,0 0,8 -8,0 z M 72,208 l 8,0 0,8 -8,0 z M 120,208 l 8,0 0,8 -8,0 z M 136,208 l 8,0 0,8 -8,0 z M 152,208 l 8,0 0,8 -8,0 z M 160,208 l 8,0 0,8 -8,0 z M 168,208 l 8,0 0,8 -8,0 z M 176,208 l 8,0 0,8 -8,0 z M 184,208 l 8,0 0,8 -8,0 z M 192,208 l 8,0 0,8 -8,0 z M 200,208 l 8,0 0,8 -8,0 z M 208,208 l 8,0 0,8 -8,0 z M 216,208 l 8,0 0,8 -8,0 z M 0,216 l 8,0 0,8 -8,0 z M 48,216 l 8,0 0,8 -8,0 z M 64,216 l 8,0 0,8 -8,0 z M 72,216 l 8,0 0,8 -8,0 z M 80,216 l 8,0 0,8 -8,0 z M 96,216 l 8,0 0,8 -8,0 z M 120,216 l 8,0 0,8 -8,0 z M 160,216 l 8,0 0,8 -8,0 z M 168,216 l 8,0 0,8 -8,0 z M 184,216 l 8,0 0,8 -8,0 z M 200,216 l 8,0 0,8 -8,0 z M 216,216 l 8,0 0,8 -8,0 z M 0,224 l 8,0 0,8 -8,0 z M 8,224 l 8,0 0,8 -8,0 z M 16,224 l 8,0 0,8 -8,0 z M 24,224 l 8,0 0,8 -8,0 z M 32,224 l 8,0 0,8 -8,0 z M 40,224 l 8,0 0,8 -8,0 z M 48,224 l 8,0 0,8 -8,0 z M 64,224 l 8,0 0,8 -8,0 z M 96,224 l 8,0 0,8 -8,0 z M 104,224 l 8,0 0,8 -8,0 z M 112,224 l 8,0 0,8 -8,0 z M 120,224 l 8,0 0,8 -8,0 z M 128,224 l 8,0 0,8 -8,0 z M 136,224 l 8,0 0,8 -8,0 z M 152,224 l 8,0 0,8 -8,0 z M 176,224 l 8,0 0,8 -8,0 z M 184,224 l 8,0 0,8 -8,0 z M 192,224 l 8,0 0,8 -8,0 z M 208,224 l 8,0 0,8 -8,0 z " />
	</g>
</svg>
